name processed_emg_signals
nRows=41
nColumns=7
 
endheader
time	RGLTMED	RRF	RADDLONG	RST	RTA	RGM
0.0	0.1261263035247612	0.303323910259026	0.8900812541128708	0.0284280282644558	0.0071128158621619	0.0428476703140689
0.001	0.1450924486863694	0.3248350987614515	0.8336102730648746	0.0256039005612621	0.0057779400042264	0.044454747210399
0.002	0.1641029659907675	0.3462310225090824	0.7776248264541896	0.0227813642726601	0.0044417399360053	0.0460627379012429
0.003	0.1831450685207327	0.3674951442698163	0.7221578675033112	0.0199607583867074	0.0031049445547286	0.0476706145021221
0.004	0.2022058770475629	0.3886110476269498	0.6672416614008186	0.0171423517189626	0.0017682761702754	0.0492773550350182
0.005	0.2212724373734405	0.4095624650208395	0.6129077402257618	0.0143263405033719	0.0004324491284599	0.0508819455533589
0.006	0.2403317377327082	0.4303333055636817	0.559186859482259	0.0115128461108496	0.0009018315170002	0.0524833822729557
0.007	0.2593707262017476	0.4509076825332911	0.5061089563497212	0.0087019129046315	0.0022338712763737	0.0540806737023189
0.008	0.2783763280682819	0.4712699404536145	0.4537031097471909	0.0058935062411098	0.0035629874346248	0.0556728427658713
0.009000000000000001	0.297335463112343	0.4914046816717193	0.4019975023035846	0.0030875106245223	0.0048885101975853	0.0572589289135524
0.01	0.3162350627520533	0.5112967923444102	0.3510193843189108	0.0002837280236222	0.006209783771283	0.0588379902104194
0.011	0.3350620870092445	0.5309314677526356	0.3007950397943166	0.0025181236421157	0.0075261673728274	0.0604091054000529
0.012	0.3538035412519194	0.5502942368676879	0.251349754602287	0.005318411839589	0.0088370361718151	0.0619713759359156
0.013000000000000001	0.372446492673517	0.5693709860990741	0.2027077868617271	0.0081175905759089	0.010141782161658	0.0635239279751298
0.014	0.3909780864722019	0.5881479821597039	0.1548923395753651	0.010916201362999	0.0114398149605279	0.0650659143294676
0.015	0.4093855616972058	0.6066118939893415	0.1079255355783799	0.0137148739875396	0.0127305625418107	0.0665965163685393
0.016	0.4276562667338733	0.6247498136817388	0.0618283948379353	0.0165143270815014	0.0140134718940821	0.0681149458703397
0.017	0.4457776744049172	0.6425492763649071	0.0166208141335305	0.019315368489314	0.0152880096108132	0.069620446814368
0.018000000000000002	0.4637373966717505	0.6599982789874977	0.0276784508622389	0.0221188954282821	0.0165536624102054	0.0711122971125608
0.019	0.4815231989259048	0.6770852979676465	0.0710518010932856	0.0249258944398978	0.0178099375857568	0.0725898102732856
0.02	0.4991230138647199	0.6937993056634815	0.1134828072201918	0.0277374411300838	0.0190563633883274	0.074052336993817
0.021	0.5165249549483091	0.7101297856267172	0.1549562203197906	0.0305546996971924	0.0202924893406633	0.0754992666768539
0.022	0.5337173294360474	0.7260667466017323	0.1954579802010502	0.0333789222471986	0.0215178864854558	0.0769300288669467
0.023	0.5506886510006346	0.7416007352326177	0.2349752213613468	0.0362114478961188	0.0227321475681318	0.078344094602858
0.024	0.5674276519170987	0.7567228474416515	0.2734962766134611	0.0390537016604524	0.0239348871556449	0.0797409776820612
0.025	0.5839232948229013	0.7714247384457827	0.3110106784192188	0.0419071931370565	0.0251257416925745	0.0811202358336636
0.026000000000000002	0.600164784043878	0.7856986313836769	0.3475091579719342	0.0447735149746373	0.0263043694958546	0.082481471796043
0.027	0.6161415764794338	0.7995373245341051	0.3829836420760926	0.0476543411393413	0.0274704506894351	0.0838243342954134
0.028	0.6318433920393737	0.8129341971165391	0.4174272478789058	0.0505514249774523	0.0286236870801698	0.0851485189214718
0.029	0.6472602236239167	0.8258832136755968	0.4508342755134077	0.053466597078153	0.0297638019762104	0.0864537688961177
0.03	0.6623823466373896	0.8383789270611894	0.4832001987167316	0.0564017629396199	0.0308905399492453	0.0877398757311649
0.031	0.6772003280255667	0.8504164800244273	0.5145216534893133	0.0593589004417554	0.0320036665419168	0.0890066797709189
0.032	0.6917050348262841	0.8619916054552142	0.5447964248619567	0.0623400571292947	0.0331029679218821	0.0902540706155925
0.033	0.7058876422236847	0.8731006252916329	0.574023431838613	0.0653473473093784	0.0341882504839895	0.0914819874216422
0.034	0.7197396410973944	0.8837404481340122	0.6022027105842739	0.0683829489682401	0.0352593404021241	0.0926904190753635
0.035	0.7332528450598633	0.8939085655992501	0.6293353959290603	0.071449100511924	0.0363160831322659	0.0938794042364943
0.036000000000000004	0.7464193969770011	0.9036030474535072	0.6554237012619487	0.0745480973363217	0.0373583428683127	0.0950490312493468
0.037	0.7592317749685639	0.9128225355637648	0.6804708968899229	0.0776822882318861	0.0383860019522231	0.0961994379201133
0.038	0.7716827978858918	0.9215662367101084	0.7044812869404683	0.0808540716287898	0.0393989602401339	0.0973308111601602
0.039	0.7837656302647719	0.9298339143008054	0.7274601848865387	0.084065891688289	0.0403971344262901	0.0984433864965118
0.04	0.7954737867519582	0.9376258790317225	0.7494138877739356	0.087320234246434	0.0413804573268612	0.0995374474522124
